<?xml version="1.0" standalone="no"?>
<!DOCTYPE svg PUBLIC "-//W3C//DTD SVG 20010904//EN"
 "http://www.w3.org/TR/2001/REC-SVG-20010904/DTD/svg10.dtd">
<svg version="1.0" xmlns="http://www.w3.org/2000/svg"
 width="135.000000pt" height="92.000000pt" viewBox="0 0 135.000000 92.000000"
 preserveAspectRatio="xMidYMid meet">

<g transform="translate(0.000000,92.000000) scale(0.100000,-0.100000)"
fill="#000000" stroke="none">
<path d="M0 460 l0 -460 675 0 675 0 0 460 0 460 -675 0 -675 0 0 -460z m855
-61 l60 -6 -67 -1 -68 -2 0 136 0 136 -62 -35 -63 -35 -3 -101 -3 -101 -97 2
c-89 2 -91 2 -24 5 l72 4 0 99 c0 89 2 100 21 113 11 8 31 14 45 12 13 -1 21
1 19 6 -3 4 0 11 6 15 8 4 9 3 5 -4 -10 -17 -3 -15 45 13 l44 24 5 -137 5
-137 60 -6z m-505 -108 c0 -4 -9 -14 -20 -24 -19 -16 -20 -16 -20 6 0 13 3 26
6 30 7 7 34 -2 34 -12z m94 13 c21 -8 21 -50 0 -58 -32 -12 -57 27 -32 52 14
14 12 14 32 6z m104 -6 c11 -15 2 -42 -15 -45 -8 -2 -13 8 -13 27 0 32 11 38
28 18z m88 -4 c-3 -9 -6 -22 -6 -30 0 -8 -4 -14 -10 -14 -5 0 -10 14 -10 30 0
21 5 30 16 30 11 0 14 -5 10 -16z m81 -2 c0 -10 -7 -24 -14 -31 -10 -9 -13 -7
-13 12 0 13 3 27 7 30 12 13 22 7 20 -11z m107 2 c20 -19 20 -19 0 -38 -12
-12 -20 -13 -35 -6 -22 12 -25 30 -7 48 16 16 23 15 42 -4z m270 -7 c16 -25
-16 -56 -38 -37 -19 15 -20 32 -4 48 15 15 28 11 42 -11z m-183 -27 c6 0 7 -5
4 -10 -11 -17 -25 0 -24 28 2 24 2 24 6 5 2 -13 9 -23 14 -23z m79 15 c0 -14
-4 -25 -10 -25 -5 0 -10 11 -10 25 0 14 5 25 10 25 6 0 10 -11 10 -25z"/>
</g>
</svg>
